<mxfile host="app.diagrams.net" agent="Mozilla/5.0 (Macintosh; Intel Mac OS X 10_15_7) AppleWebKit/537.36 (KHTML, like Gecko) Chrome/129.0.0.0 Safari/537.36" version="24.7.17">
  <diagram name="DCU" id="VFJr8dNFwUO1AaLpuf3z">
    <mxGraphModel dx="2074" dy="789" grid="1" gridSize="10" guides="1" tooltips="1" connect="1" arrows="1" fold="1" page="1" pageScale="1" pageWidth="827" pageHeight="1169" math="0" shadow="0">
      <root>
        <mxCell id="0" />
        <mxCell id="1" parent="0" />
        <mxCell id="-O8y_khU-81oUFgjVsvs-1" value="Visiteur" style="shape=umlActor;verticalLabelPosition=bottom;verticalAlign=top;html=1;outlineConnect=0;" vertex="1" parent="1">
          <mxGeometry x="60" y="170" width="30" height="60" as="geometry" />
        </mxCell>
        <mxCell id="-O8y_khU-81oUFgjVsvs-5" value="Acheteur/Loc&lt;span style=&quot;background-color: initial;&quot;&gt;ataire&lt;/span&gt;" style="shape=umlActor;verticalLabelPosition=bottom;verticalAlign=top;html=1;outlineConnect=0;" vertex="1" parent="1">
          <mxGeometry x="30" y="360" width="30" height="60" as="geometry" />
        </mxCell>
        <mxCell id="-O8y_khU-81oUFgjVsvs-6" value="Vendeur/Locateur" style="shape=umlActor;verticalLabelPosition=bottom;verticalAlign=top;html=1;outlineConnect=0;" vertex="1" parent="1">
          <mxGeometry x="40" y="600" width="30" height="60" as="geometry" />
        </mxCell>
        <mxCell id="-O8y_khU-81oUFgjVsvs-7" value="Changer la langue site" style="ellipse;whiteSpace=wrap;html=1;" vertex="1" parent="1">
          <mxGeometry x="274" width="140" height="70" as="geometry" />
        </mxCell>
        <mxCell id="-O8y_khU-81oUFgjVsvs-8" value="" style="endArrow=none;html=1;rounded=0;" edge="1" parent="1" source="-O8y_khU-81oUFgjVsvs-1" target="-O8y_khU-81oUFgjVsvs-7">
          <mxGeometry width="50" height="50" relative="1" as="geometry">
            <mxPoint x="340" y="430" as="sourcePoint" />
            <mxPoint x="390" y="380" as="targetPoint" />
          </mxGeometry>
        </mxCell>
        <mxCell id="-O8y_khU-81oUFgjVsvs-9" value="Consulter les tickets" style="ellipse;whiteSpace=wrap;html=1;" vertex="1" parent="1">
          <mxGeometry x="440" y="10" width="140" height="70" as="geometry" />
        </mxCell>
        <mxCell id="-O8y_khU-81oUFgjVsvs-10" value="" style="endArrow=none;html=1;rounded=0;" edge="1" parent="1" source="-O8y_khU-81oUFgjVsvs-1" target="-O8y_khU-81oUFgjVsvs-9">
          <mxGeometry width="50" height="50" relative="1" as="geometry">
            <mxPoint x="120" y="254" as="sourcePoint" />
            <mxPoint x="349" y="190" as="targetPoint" />
          </mxGeometry>
        </mxCell>
        <mxCell id="-O8y_khU-81oUFgjVsvs-11" value="Consulter les propriétés public" style="ellipse;whiteSpace=wrap;html=1;" vertex="1" parent="1">
          <mxGeometry x="344" y="110" width="140" height="70" as="geometry" />
        </mxCell>
        <mxCell id="-O8y_khU-81oUFgjVsvs-12" value="" style="endArrow=none;html=1;rounded=0;" edge="1" parent="1" source="-O8y_khU-81oUFgjVsvs-1" target="-O8y_khU-81oUFgjVsvs-11">
          <mxGeometry width="50" height="50" relative="1" as="geometry">
            <mxPoint x="110" y="290" as="sourcePoint" />
            <mxPoint x="332" y="315" as="targetPoint" />
          </mxGeometry>
        </mxCell>
        <mxCell id="-O8y_khU-81oUFgjVsvs-13" value="Commencer la création d&#39;une requête" style="ellipse;whiteSpace=wrap;html=1;" vertex="1" parent="1">
          <mxGeometry x="360" y="200" width="140" height="70" as="geometry" />
        </mxCell>
        <mxCell id="-O8y_khU-81oUFgjVsvs-14" value="" style="endArrow=none;html=1;rounded=0;" edge="1" parent="1" source="-O8y_khU-81oUFgjVsvs-1" target="-O8y_khU-81oUFgjVsvs-13">
          <mxGeometry width="50" height="50" relative="1" as="geometry">
            <mxPoint x="100" y="310" as="sourcePoint" />
            <mxPoint x="336" y="407" as="targetPoint" />
          </mxGeometry>
        </mxCell>
        <mxCell id="-O8y_khU-81oUFgjVsvs-15" value="Enregistrer en broullion" style="ellipse;whiteSpace=wrap;html=1;" vertex="1" parent="1">
          <mxGeometry x="600" y="60" width="140" height="70" as="geometry" />
        </mxCell>
        <mxCell id="-O8y_khU-81oUFgjVsvs-16" value="&amp;lt;&amp;lt;extend&amp;gt;&amp;gt;" style="html=1;verticalAlign=bottom;labelBackgroundColor=none;endArrow=open;endFill=0;dashed=1;rounded=0;" edge="1" parent="1" source="-O8y_khU-81oUFgjVsvs-15" target="-O8y_khU-81oUFgjVsvs-13">
          <mxGeometry width="160" relative="1" as="geometry">
            <mxPoint x="480" y="270" as="sourcePoint" />
            <mxPoint x="640" y="270" as="targetPoint" />
          </mxGeometry>
        </mxCell>
        <mxCell id="-O8y_khU-81oUFgjVsvs-17" value="S&#39;enregistrer" style="ellipse;whiteSpace=wrap;html=1;" vertex="1" parent="1">
          <mxGeometry x="370" y="310" width="140" height="70" as="geometry" />
        </mxCell>
        <mxCell id="-O8y_khU-81oUFgjVsvs-18" value="" style="endArrow=none;html=1;rounded=0;" edge="1" parent="1" source="-O8y_khU-81oUFgjVsvs-1" target="-O8y_khU-81oUFgjVsvs-17">
          <mxGeometry width="50" height="50" relative="1" as="geometry">
            <mxPoint x="100" y="219" as="sourcePoint" />
            <mxPoint x="346" y="373" as="targetPoint" />
          </mxGeometry>
        </mxCell>
      </root>
    </mxGraphModel>
  </diagram>
</mxfile>
